<svg id="Layer_1" data-name="Layer 1" xmlns="http://www.w3.org/2000/svg" viewBox="0 0 1080 1080"><defs><style>.cls-1{fill:#0f0f19;}.cls-2{fill:#cd9c4d;}</style></defs><title>sanjay niraula logo</title><rect class="cls-1" width="1080" height="1080"/><rect class="cls-2" x="743.68" y="498.07" width="35.5" height="10.28" rx="5.14" ry="5.14"/><rect class="cls-2" x="744.61" y="528.9" width="29.9" height="10.28" rx="5.14" ry="5.14"/><rect class="cls-2" x="755.82" y="513.48" width="40.18" height="10.28" rx="5.14" ry="5.14"/><rect class="cls-2" x="734.34" y="513.48" width="17.75" height="10.28" rx="5.14" ry="5.14"/><rect class="cls-2" x="304.55" y="499" width="31.77" height="10.28" rx="5.14" ry="5.14"/><rect class="cls-2" x="292.41" y="529.83" width="43.91" height="10.28" rx="5.14" ry="5.14"/><rect class="cls-2" x="312.96" y="514.42" width="40.18" height="10.28" rx="5.14" ry="5.14"/><rect class="cls-2" x="284" y="514.42" width="25.23" height="10.28" rx="5.14" ry="5.14"/><rect class="cls-2" x="452.72" y="309.08" width="8.41" height="14.01" rx="4.2" ry="4.2" transform="translate(-88.67 211.1) rotate(-23.78)"/><rect class="cls-2" x="420.28" y="327.02" width="8.41" height="14.01" rx="4.2" ry="4.2" transform="translate(-114.29 295.48) rotate(-34.11)"/><rect class="cls-2" x="391.58" y="350.49" width="8.41" height="14.01" rx="4.2" ry="4.2" transform="translate(-137.11 379.27) rotate(-44.43)"/><rect class="cls-2" x="367.54" y="378.71" width="8.41" height="14.01" rx="4.2" ry="4.2" transform="matrix(0.58, -0.82, 0.82, 0.58, -157.79, 466.74)"/><rect class="cls-2" x="334.27" y="454.82" width="8.41" height="14.01" rx="4.2" ry="4.2" transform="translate(-183.57 697.04) rotate(-78.02)"/><rect class="cls-2" x="348.91" y="584.28" width="8.41" height="14.01" rx="4.2" ry="4.2" transform="translate(-34.71 1160.42) rotate(-114.88)"/><rect class="cls-2" x="618.87" y="309.08" width="8.41" height="14.01" rx="4.2" ry="4.2" transform="translate(1065.78 856.6) rotate(-156.22)"/><rect class="cls-2" x="651.32" y="327.02" width="8.41" height="14.01" rx="4.2" ry="4.2" transform="translate(1010.98 978.18) rotate(-145.89)"/><rect class="cls-2" x="680.02" y="350.49" width="8.41" height="14.01" rx="4.2" ry="4.2" transform="translate(922.56 1091.77) rotate(-135.57)"/><rect class="cls-2" x="704.05" y="378.71" width="8.41" height="14.01" rx="4.2" ry="4.2" transform="translate(801.95 1186.73) rotate(-125.24)"/><rect class="cls-2" x="737.32" y="454.82" width="8.41" height="14.01" rx="4.2" ry="4.2" transform="translate(443.72 1283.09) rotate(-101.98)"/><rect class="cls-2" x="722.69" y="584.28" width="8.41" height="14.01" rx="4.2" ry="4.2" transform="translate(-115.36 1001.9) rotate(-65.12)"/><path class="cls-2" d="M397.25,662.51a17.25,17.25,0,0,0-4.19-8.37c-4.74-5.07-12.33-7.16-19.27-7-7.27.11-15.53,2.75-20.15,8.81a16.24,16.24,0,0,0-3.41,11.78c2,27,45.26,5.84,50.55,30.51,3.52,16.3-12,26-26.65,26-11.23,0-24.89-6.39-26.21-18.83l-.11-.77,1.76-.22.11.77c1.21,11.56,14.1,17.4,24.56,17.4,13.44,0,28-8.7,24.78-24-5-22.91-48.46-2-50.44-30.73a18.11,18.11,0,0,1,3.63-12.89c11.23-14.54,43-12.67,46.7,7.27l.11.88-1.65.33Z"/><path class="cls-2" d="M457.93,697.53h-39l-10.46,25.88h-1.87l30.95-78.19h1.87l30.95,78.19H468.5Zm-38.22-1.65h37.55l-18.83-48.35Z"/><path class="cls-2" d="M479,723.41v-77.2l1.54.11,51.21,74v-74h1.65v77.09h-1.76l-50.88-73.57v73.57Z"/><path class="cls-2" d="M580.06,690.81c0,22.36-16.63,32.6-37.55,32.6v-1.76c20,0,35.9-9.47,35.9-30.84V648H554.62v-1.54h25.44Z"/><path class="cls-2" d="M637.22,697.53h-39l-10.46,25.88H585.9l30.95-78.19h1.87l30.95,78.19h-1.87ZM599,695.88h37.55l-18.83-48.35Z"/><path class="cls-2" d="M645.26,646.43l27.09,43.39,27.09-43.39h2.09l-28.3,45.15v31.83h-1.76V691.59l-28.3-45.15Z"/><path class="cls-2" d="M746.36,697.53h-39l-10.46,25.88H695L726,645.22h1.87l30.95,78.19h-1.87Zm-38.22-1.65H745.7l-18.83-48.35Z"/><path class="cls-2" d="M377.32,744.78a.88.88,0,0,1,.55.16.62.62,0,0,1,.22.53,1.17,1.17,0,0,1-.07.36l-8.33,24a.64.64,0,0,1-.27.34.71.71,0,0,1-.38.13,1.08,1.08,0,0,1-.46-.09.5.5,0,0,1-.27-.34l-6.8-17.17h.29L355,769.88a.63.63,0,0,1-.31.34,1.08,1.08,0,0,1-.45.09.62.62,0,0,1-.36-.13.66.66,0,0,1-.25-.34l-8.33-24a1.13,1.13,0,0,1-.07-.33.61.61,0,0,1,.27-.55,1,1,0,0,1,.53-.18.77.77,0,0,1,.42.13.64.64,0,0,1,.27.35l7.82,22.59-.25,0L361,751a.67.67,0,0,1,.25-.35.75.75,0,0,1,.44-.13.78.78,0,0,1,.42.13.64.64,0,0,1,.27.35l6.77,17-.33,0,7.82-22.77a.66.66,0,0,1,.25-.35A.81.81,0,0,1,377.32,744.78Z"/><path class="cls-2" d="M393.29,744.86H407a.75.75,0,0,1,.73.73.68.68,0,0,1-.22.53.73.73,0,0,1-.51.2H393.73l.36-.62V757l-.44-.51h11.71a.75.75,0,0,1,.73.73.68.68,0,0,1-.22.53.73.73,0,0,1-.51.2H393.73l.36-.4V769l-.15-.18H407a.75.75,0,0,1,.73.73.68.68,0,0,1-.22.53.73.73,0,0,1-.51.2H393.29a.75.75,0,0,1-.73-.73v-24a.75.75,0,0,1,.73-.73Z"/><path class="cls-2" d="M433.27,744.86a6.45,6.45,0,0,1,4.66,1.67,6,6,0,0,1,1.75,4.51,7.28,7.28,0,0,1-.6,2.89,5.76,5.76,0,0,1-1.76,2.31,5.28,5.28,0,0,1-2.87,1.06l-.25-.44a8.23,8.23,0,0,1,2.66.42,5.83,5.83,0,0,1,3.58,3.31,7.15,7.15,0,0,1,.53,2.86,7.34,7.34,0,0,1-.58,3,5.94,5.94,0,0,1-1.6,2.15,6.74,6.74,0,0,1-2.36,1.27,9.62,9.62,0,0,1-2.87.42h-10a.75.75,0,0,1-.73-.73v-24a.75.75,0,0,1,.73-.73Zm-.18,1.46h-9.2l.4-.69v11.53l-.36-.62h9.17a5.16,5.16,0,0,0,3.6-1.42,5.41,5.41,0,0,0,1.46-4.11,4.57,4.57,0,0,0-1.31-3.4A5.12,5.12,0,0,0,433.09,746.31Zm.25,11.71h-9.2l.15-.22v11.35l-.18-.29h9.24a7.07,7.07,0,0,0,4.33-1.29,4.79,4.79,0,0,0,1.75-4.13,5.48,5.48,0,0,0-.8-3.09,4.69,4.69,0,0,0-2.18-1.76A8.12,8.12,0,0,0,433.34,758Z"/><path class="cls-2" d="M485.55,744.86a10.16,10.16,0,0,1,4.73,1,9.2,9.2,0,0,1,3.29,2.84,12.57,12.57,0,0,1,1.91,4.09,18.2,18.2,0,0,1,.62,4.77A17.7,17.7,0,0,1,495,764a10.13,10.13,0,0,1-3.44,4.62,9.81,9.81,0,0,1-6,1.73h-9.46a.74.74,0,0,1-.73-.73v-24a.74.74,0,0,1,.73-.73Zm-.36,24a8.91,8.91,0,0,0,5.4-1.51,8.73,8.73,0,0,0,3-4.07,16.07,16.07,0,0,0,1-5.69,16.9,16.9,0,0,0-.53-4.26,10.85,10.85,0,0,0-1.66-3.62,7.94,7.94,0,0,0-2.91-2.49,9.35,9.35,0,0,0-4.29-.91h-8.51l.22-.29v23.17l-.22-.33Z"/><path class="cls-2" d="M511.85,744.86h13.72a.75.75,0,0,1,.73.73.68.68,0,0,1-.22.53.73.73,0,0,1-.51.2H512.28l.36-.62V757l-.44-.51h11.71a.74.74,0,0,1,.73.73.68.68,0,0,1-.22.53.73.73,0,0,1-.51.2H512.28l.36-.4V769l-.15-.18h13.06a.75.75,0,0,1,.73.73.68.68,0,0,1-.22.53.73.73,0,0,1-.51.2H511.85a.75.75,0,0,1-.73-.73v-24a.75.75,0,0,1,.73-.73Z"/><path class="cls-2" d="M559.68,744.86a.74.74,0,0,1,.55.18.64.64,0,0,1,.18.47,1.17,1.17,0,0,1-.07.36l-10,24a.9.9,0,0,1-.29.34.67.67,0,0,1-.4.13.76.76,0,0,1-.42-.13.64.64,0,0,1-.27-.34L539.09,746a1.59,1.59,0,0,1-.07-.18.82.82,0,0,1,0-.25.64.64,0,0,1,.22-.49.69.69,0,0,1,.47-.2.84.84,0,0,1,.8.58l9.46,22.77-.44,0,9.5-22.85A.77.77,0,0,1,559.68,744.86Z"/><path class="cls-2" d="M575.62,744.86h13.71a.74.74,0,0,1,.73.73.69.69,0,0,1-.22.53.73.73,0,0,1-.51.2H576.05l.36-.62V757l-.44-.51h11.71a.75.75,0,0,1,.73.73.68.68,0,0,1-.22.53.73.73,0,0,1-.51.2H576.05l.36-.4V769l-.15-.18h13.06a.74.74,0,0,1,.73.73.69.69,0,0,1-.22.53.73.73,0,0,1-.51.2H575.62a.75.75,0,0,1-.73-.73v-24a.75.75,0,0,1,.73-.73Z"/><path class="cls-2" d="M619.16,768.86a.74.74,0,0,1,.73.73.69.69,0,0,1-.22.53.73.73,0,0,1-.51.2H605.81a.68.68,0,0,1-.53-.22.73.73,0,0,1-.2-.51v-24a.7.7,0,0,1,.22-.51.79.79,0,0,1,1.09,0,.7.7,0,0,1,.22.51v23.94l-.66-.66Z"/><path class="cls-2" d="M655.76,757.59a15.19,15.19,0,0,1-.89,5.31,12.2,12.2,0,0,1-2.53,4.15,11.29,11.29,0,0,1-3.86,2.69,13,13,0,0,1-9.75,0,11.31,11.31,0,0,1-3.86-2.69,12.17,12.17,0,0,1-2.53-4.15,16.25,16.25,0,0,1,0-10.62,12.17,12.17,0,0,1,2.53-4.15,11.31,11.31,0,0,1,3.86-2.69,13,13,0,0,1,9.75,0,11.29,11.29,0,0,1,3.86,2.69,12.2,12.2,0,0,1,2.53,4.15A15.19,15.19,0,0,1,655.76,757.59Zm-1.53,0a13,13,0,0,0-1.36-6.11,10.16,10.16,0,0,0-3.75-4.07,11.13,11.13,0,0,0-11,0,10.11,10.11,0,0,0-3.77,4.07,14.38,14.38,0,0,0,0,12.22,10.11,10.11,0,0,0,3.77,4.07,11.13,11.13,0,0,0,11,0,10.16,10.16,0,0,0,3.75-4.07A13,13,0,0,0,654.23,757.59Z"/><path class="cls-2" d="M680.24,744.86a7.24,7.24,0,0,1,3.62.87,6.12,6.12,0,0,1,2.4,2.44,7.47,7.47,0,0,1,.85,3.64,7.82,7.82,0,0,1-.85,3.67,6.5,6.5,0,0,1-2.4,2.58,6.8,6.8,0,0,1-3.62.95h-8.07l.15-.25v10.84a.68.68,0,0,1-.24.51.76.76,0,0,1-.53.22.72.72,0,0,1-.76-.73v-24a.75.75,0,0,1,.73-.73Zm0,12.7a5.25,5.25,0,0,0,2.86-.75,5,5,0,0,0,1.84-2.05,6.51,6.51,0,0,0,.66-2.95,6,6,0,0,0-.66-2.89,4.8,4.8,0,0,0-1.84-1.91,5.58,5.58,0,0,0-2.86-.69h-8l.11-.18v11.53l-.15-.11Z"/><path class="cls-2" d="M702.68,744.86H716.4a.74.74,0,0,1,.73.73.69.69,0,0,1-.22.53.73.73,0,0,1-.51.2H703.12l.36-.62V757l-.44-.51h11.71a.75.75,0,0,1,.73.73.68.68,0,0,1-.22.53.73.73,0,0,1-.51.2H703.12l.36-.4V769l-.15-.18H716.4a.74.74,0,0,1,.73.73.69.69,0,0,1-.22.53.73.73,0,0,1-.51.2H702.68a.75.75,0,0,1-.73-.73v-24a.75.75,0,0,1,.73-.73Z"/><path class="cls-2" d="M732.91,770.32a.72.72,0,0,1-.76-.73v-24a.75.75,0,0,1,.73-.73h9.6a8,8,0,0,1,3.76.85,6.29,6.29,0,0,1,3.44,5.73,7.34,7.34,0,0,1-.6,3,6.07,6.07,0,0,1-1.67,2.24A6.72,6.72,0,0,1,745,758l-1.67-.29a5.51,5.51,0,0,1,2.76.75,5.81,5.81,0,0,1,2.15,2.18,6.88,6.88,0,0,1,.84,3.51,16.69,16.69,0,0,0,.16,2.71,4,4,0,0,0,.44,1.36,2.35,2.35,0,0,0,.64.69.94.94,0,0,1,.33.36.71.71,0,0,1,0,.51.72.72,0,0,1-.24.35.82.82,0,0,1-.35.16.62.62,0,0,1-.4-.07,3.8,3.8,0,0,1-1-.87,4.7,4.7,0,0,1-.82-1.78,13.78,13.78,0,0,1-.33-3.42,6,6,0,0,0-.53-2.73,4.1,4.1,0,0,0-1.35-1.56,4.79,4.79,0,0,0-1.75-.73,8.85,8.85,0,0,0-1.69-.18h-8.84l.33-.44v11.1a.7.7,0,0,1-.22.51A.74.74,0,0,1,732.91,770.32Zm.4-12.84h9.35a6.52,6.52,0,0,0,2.69-.87,5.71,5.71,0,0,0,2-2,5.91,5.91,0,0,0,.78-3.09,4.83,4.83,0,0,0-1.58-3.69,6,6,0,0,0-4.27-1.47h-8.8l.18-.25v11.82Z"/><path class="cls-2" d="M540,330.83A173.77,173.77,0,0,0,412.44,622.61l78-38.58V573.75l9.34-5.61V555.06c-3.74,0-9.34-6.54-9.34-6.54a11.28,11.28,0,0,1-7.47,2.8c1.87-3.74,1.87-9.34,1.87-9.34-5.61,4.67-12.15,0-12.15,0,6.54-1.87,5.61-13.08,5.61-13.08-12.15,2.8-18.69-9.34-15.88-17.75,3.74,4.67,7.47,5.61,7.47,5.61s-14-14-14.95-28a117.28,117.28,0,0,0,11.21,3.74l-.93-14L441.9,428.93,542.8,358.86l47.65,62.6s18.45-9.93,27.52-6.3l-5.09,6.3,7.9-4.36a6.88,6.88,0,0,1,.51.63c6.54,9.34-5.61,23.36-5.61,23.36.93,1.87,6.54,1.87,11.21.93-5.61,13.08-17.75,6.54-17.75,6.54,1.87,5.61,3.74,6.54,7.47,11.21-5.61,1.87-10.28-2.8-13.08-6.54,6.54,10.28.93,14,.93,20.55S623.15,499,623.15,499c-3.74,6.54-13.08,8.41-13.08,8.41s1.87,5.61,3.74,7.47c1.32,1.32-3.74,5.61-3.74,5.61s5.16,4.18,0,9.34c-.71.71-.34,5.19-.12,7.3a3,3,0,0,0,.83,1.69c3.63,3.94-.35,19.14-10.05,20.91l-20.55-.93L579.24,585l85.83,40.29A173.77,173.77,0,0,0,540,330.83Z"/></svg>